<?xml version="1.0" encoding="utf-8"?>
<!-- Generator: Adobe Illustrator 22.0.0, SVG Export Plug-In . SVG Version: 6.00 Build 0)  -->
<svg version="1.1" id="Layer_1" xmlns="http://www.w3.org/2000/svg" xmlns:xlink="http://www.w3.org/1999/xlink" x="0px" y="0px"
	 viewBox="0 0 97.9 18.6" style="enable-background:new 0 0 97.9 18.6;" xml:space="preserve">
<style type="text/css">
	.st0{fill:#BB9A37;}
</style>
<g>
	<path class="st0" d="M0,0.3h11v3.8H4.4v3.8h5.5v3.8H4.4v6.7H0V0.3z"/>
	<path class="st0" d="M17.8,10.9L11.8,0.3h5l2,4.3C19.5,5.9,20,7.2,20,7.2H20c0,0,0.5-1.4,1.1-2.6l2-4.3h5l-5.9,10.6v7.4h-4.4V10.9z
		"/>
	<path class="st0" d="M35.9,0c4.5,0,6.7,2.5,6.7,2.5l-2,3.3c0,0-2-1.8-4.5-1.8c-3.4,0-5.1,2.5-5.1,5.1c0,2.7,1.8,5.4,5.1,5.4
		c2.7,0,4.8-2.2,4.8-2.2l2.3,3.2c0,0-2.5,3-7.2,3c-5.6,0-9.4-4-9.4-9.3C26.5,4,30.5,0,35.9,0z"/>
</g>
<g>
	<path class="st0" d="M46.2,17.2c0-6.2,9.1-7,9.1-11.8c0-1.9-1.5-3.4-3.7-3.4c-2.6,0-4,2.4-4,2.4l-1.3-0.9c0,0,1.6-3.2,5.4-3.2
		c3.4,0,5.4,2.2,5.4,5c0,5.9-8.9,6.8-9,11.5h9.2v1.6h-11C46.3,17.9,46.2,17.5,46.2,17.2z"/>
	<path class="st0" d="M59.7,9.4c0-5.1,1.5-9.1,6.1-9.1c4.6,0,6.1,4.1,6.1,9.1c0,5.1-1.5,9.2-6.1,9.2C61.2,18.6,59.7,14.6,59.7,9.4z
		 M70.1,9.4c0-4.2-0.9-7.5-4.3-7.5c-3.4,0-4.3,3.3-4.3,7.5c0,4.2,0.9,7.5,4.3,7.5C69.2,17,70.1,13.7,70.1,9.4z"/>
	<path class="st0" d="M74.6,16.7h4v-13c0-0.5,0-1,0-1h-0.1c0,0-0.2,0.4-0.9,1.1l-1.9,1.9l-1.1-1.1l4-4h1.6v16.1h3.9v1.6h-9.6V16.7z"
		/>
	<path class="st0" d="M88.9,8.4c-1.3-0.8-2.2-1.9-2.2-3.6c0-2.3,1.8-4.5,5.3-4.5c3.3,0,5.4,1.8,5.4,4.6c0,2.5-2,4.6-2.2,4.8
		c1.5,0.8,2.6,2,2.6,3.8c0,2.8-2.4,5.1-5.9,5.1c-3.2,0-6-2-6-5.4C86,10.4,88.5,8.6,88.9,8.4z M90.4,9.1c-0.6,0.3-2.5,1.7-2.5,4
		c0,2.4,2.1,3.8,4.2,3.8c2.1,0,4.1-1.4,4.1-3.5C96.1,11.2,93,10.4,90.4,9.1z M93.9,9c0.3-0.3,1.8-1.9,1.8-4c0-1.9-1.5-3.1-3.6-3.1
		c-2.3,0-3.6,1.3-3.6,2.9C88.5,7.1,91.4,7.9,93.9,9z"/>
</g>
</svg>
