<?xml version="1.0" encoding="utf-8"?>
<!-- Generator: Adobe Illustrator 22.0.1, SVG Export Plug-In . SVG Version: 6.00 Build 0)  -->
<svg version="1.1" id="Layer_1" xmlns="http://www.w3.org/2000/svg" xmlns:xlink="http://www.w3.org/1999/xlink" x="0px" y="0px"
	 viewBox="0 0 884.4 187.5" style="enable-background:new 0 0 884.4 187.5;" xml:space="preserve">
<style type="text/css">
	.st0{fill:#FFFFFF;}
</style>
<g>
	<g id="Shape_3_copy_2_2_">
		<g>
			<path class="st0" d="M282.8,82.1h-16.4l-6.9,12.5l-6.2-12.5H247l12.2,24l6.5-11.6l1.9,2H278l0,3.7h-13l1.3,5h13.9l2.5-4.1
				l0.1-7.1l-2.4-2.6h-9.5l-0.1-3.5h10.8L282.8,82.1z M870.5,52.2c-6.9-7.1-19.5-15.6-40.3-15.6h-12.5L792.9,59v29.1l26,50.1h11.3
				c35.6,0,54.2-25.7,54.2-51.1C884.4,73.8,879.4,61.4,870.5,52.2z M831.6,114.2H819V60.4h12.6c21.7,0,29.4,14.8,29.4,26.7
				C861,100.2,851.9,114.2,831.6,114.2z M698.2,137.2h26.4l6.3-11.5h49.3l28.7,55.6l18.4-16L756.9,29.7L698.2,137.2z M743.9,102
				l12.4-22.7L768,102H743.9z M681.4,113.5V99.4h31.4l13.8-25.2h-45.2V62.5H733l14-25.6h-65.7L656,60.7v76.4h36.2l12.9-23.7H681.4z
				 M598.3,36.6h-13.6L561,58v80.2h37.3c35.6,0,54.2-25.7,54.2-51.1c0-13.3-4.9-25.6-13.9-34.8C631.6,45.1,619,36.6,598.3,36.6z
				 M598.3,114.2h-12.6V60.4h12.6c21.7,0,29.4,14.8,29.4,26.7C627.7,100.2,618.6,114.2,598.3,114.2z M436.9,138.2h26v-104l-26,46.8
				V138.2z M492.7,15.6l-24.5,21.2v101.4h50.9l20.9-22.4h-47.4V15.6z M393.8,99.8l-30.9-58.7l-19.1,18.5l48.3,92.9l74.1-136.1
				L449.2,0L393.8,99.8z M315.4,114V98.4h42.2l-11.9-22.7h-30.3V61.7h19.5l23.9-23.8H315l-23.1,20.8v79.5h86.7L365.9,114H315.4z
				 M215.3,48v33.5h-14.7V47.9h-22.5l0.3,90.3h22.2v-33.6h14.7v33.6h23l-0.6-109.5L215.3,48z"/>
		</g>
	</g>
	<g id="Shape_3_2_">
		<g>
			<path class="st0" d="M78.9,24.7L0,170.4l19.3,17.2l32.2-59.8h52.9l15.2,29.4l19.6-17L78.9,24.7z M65.2,102.3l13.1-24.4l12.8,24.4
				H65.2z"/>
		</g>
	</g>
	<g id="Shape_3_copy_3_">
		<g>
			<polygon class="st0" points="173,48 133.8,48 113.3,65.8 113.4,81.8 125.7,105.4 145.3,105.4 145.1,116 131.3,116 142.9,138.2
				154.5,138.2 173,124 173,82 140.3,82 139.7,71.5 173,71.5 			"/>
		</g>
	</g>
</g>
</svg>
