<?xml version="1.0" encoding="utf-8"?>
<!-- Generator: Adobe Illustrator 22.0.1, SVG Export Plug-In . SVG Version: 6.00 Build 0)  -->
<svg version="1.1" id="Layer_1" xmlns="http://www.w3.org/2000/svg" xmlns:xlink="http://www.w3.org/1999/xlink" x="0px" y="0px"
	 viewBox="0 0 610.1 294.1" style="enable-background:new 0 0 610.1 294.1;" xml:space="preserve">
<style type="text/css">
	.st0{fill:#010101;}
</style>
<g>
	<g id="Shape_3_copy_2">
		<g>
			<path class="st0" d="M280.8,143.1h-16.4l-6.9,12.5l-6.2-12.5H245l12.2,24l6.5-11.6l1.9,2H276l0,3.7h-13l1.3,5h13.9l2.5-4.1
				l0.1-7.1l-2.4-2.6h-9.5l-0.1-3.5h10.8L280.8,143.1z M596.2,165c-6.9-7.1-19.5-15.6-40.3-15.6h-12.5l-24.9,22.4v29.1l26,50.1h11.3
				c35.6,0,54.2-25.7,54.2-51.1C610.1,186.6,605.1,174.2,596.2,165z M557.3,226.9h-12.6v-53.8h12.6c21.7,0,29.4,14.8,29.4,26.7
				C586.7,213,577.6,226.9,557.3,226.9z M423.9,249.9h26.4l6.3-11.5h49.3l28.7,55.6l18.4-16l-70.4-135.6L423.9,249.9z M469.6,214.7
				l12.4-22.7l11.7,22.7H469.6z M407.1,226.2v-14.1h31.4l13.8-25.2h-45.2v-11.7h51.6l14-25.6H407l-25.3,23.8v76.4h36.2l12.9-23.7
				H407.1z M324,149.4h-13.6l-23.7,21.4V251H324c35.6,0,54.2-25.7,54.2-51.1c0-13.3-4.9-25.6-13.9-34.8
				C357.3,157.9,344.7,149.4,324,149.4z M324,226.9h-12.6v-53.8H324c21.7,0,29.4,14.8,29.4,26.7C353.4,213,344.3,226.9,324,226.9z
				 M456.9,138.2v-104l-26,46.8v57.2H456.9z M534.1,115.8h-47.4V15.6l-24.5,21.2v101.4h50.9L534.1,115.8z M386.2,152.6l74.1-136.1
				L443.1,0l-55.4,99.8l-30.9-58.7l-19.1,18.5L386.2,152.6z M359.9,114h-50.5V98.4h42.2l-11.9-22.7h-30.3V61.7h19.5l23.9-23.8H309
				l-23.1,20.8v79.5h86.7L359.9,114z M215.3,80.9v33.5h-14.7V80.9h-22.5l0.3,90.3h22.2v-33.6h14.7v33.6h23l-0.6-109.5L215.3,80.9z"
				/>
		</g>
	</g>
	<g id="Shape_3">
		<g>
			<path class="st0" d="M78.9,57.6L0,203.3l19.3,17.2l32.2-59.8h52.9l15.2,29.4l19.6-17L78.9,57.6z M65.2,135.3l13.1-24.4l12.8,24.4
				H65.2z"/>
		</g>
	</g>
	<g id="Shape_3_copy_2_">
		<g>
			<polygon class="st0" points="173,80.9 133.8,80.9 113.3,98.8 113.4,114.8 125.7,138.3 145.3,138.3 145.1,149 131.3,149 
				142.9,171.1 154.5,171.1 173,157 173,114.9 140.3,114.9 139.7,104.4 173,104.4 			"/>
		</g>
	</g>
</g>
</svg>
