<?xml version="1.0" encoding="utf-8"?>
<!-- Generator: Adobe Illustrator 22.0.1, SVG Export Plug-In . SVG Version: 6.00 Build 0)  -->
<svg version="1.1" id="Layer_1" xmlns="http://www.w3.org/2000/svg" xmlns:xlink="http://www.w3.org/1999/xlink" x="0px" y="0px"
	 viewBox="0 0 334.1 213.4" style="enable-background:new 0 0 334.1 213.4;" xml:space="preserve">
<style type="text/css">
	.st0{fill:#FFFFFF;}
</style>
<g>
	<g>
		<g>
			<path class="st0" d="M104.8,18.1c-1.1,0.6-0.5-0.1-0.9,1.3c-0.5-0.7-0.6-3.1-0.9-3.9c-0.3-0.1-0.6-0.3-0.9-0.4
				c-0.2,0.7-0.3,0.7-0.4,1.7c-0.6-0.9-1.1-3.1-1.3-4.3c-1,0.6-0.7,1.3-1.3,2.2v0.9c-0.5-0.7-0.5-1.8-0.4-3c-1,0.5-0.8,0.4-1.3,1.3
				c-0.4-0.7-0.3-1.6-0.4-3c-0.9,0.4-2.1,3.2-2.2,3.4c-1.1-0.6-0.5,0.1-0.9-1.3h-0.9c-0.4,3-1.7,6.2-1.7,10.3
				C90.2,22.6,91,23.4,91,22c-2.8,1.7-1.9,7.2-3,10.8c-1.4,4.6-2.2,10-3.9,15.1c-2.5,7.4-4.1,16.5-6.9,23.7
				c-0.1,1.4-0.3,2.9-0.4,4.3c-1.4,4.3-2.9,9.8-4.3,14.2c-1.4,4.5-0.8,9.7-2.2,14.2c-1.3,4.2-2.6,9.8-3,14.7h-0.9
				c-1.6-8.4-4.9-19.5-7.8-28c-2.2-6.7-2.3-12.6-4.3-19.4c-1.2-3.8-4.3-17.3-2.6-20.7c-0.6-1.1,0.1-0.5-1.3-0.9
				c-0.2-3.1-0.6-3.9-0.9-6.5h-1.3c-0.6-6.6-3.4-14.1-3.4-20.3h-1.7c-0.4-2.2-1.2-2.6-1.3-5.2c-1.5-0.7-2.5-1.3-4.7-1.3
				c-0.3-0.7-0.4-1.4-0.4-2.6c-1.7-0.7-3.7-1.1-5.2-2.2c-2-1.7-3.3-6.5-4.3-7.8c-0.6,0-0.6-0.1-1.3,0.9c-1.4-1.5-1.4-1.7-1.3-3.9
				c-0.6,0.4-1.2,0.8-1.7,1.3c-0.5-0.6-0.8-1.5-1.3-2.2V0c-1.1,0.6-0.7,0.2-0.9,1.7h-0.4C20,1.1,20,1,19.8,0H19
				c-0.2,1.2-0.6,1.6,0,2.6v0.9c-1.1-0.6-0.8-0.5-0.9-2.2c-1,0.6-0.7,0.9-1.3,1.7c0,0-3-0.7-3.9-1.3c-1.2,0-1.8,0.2-2.6,0.4
				c0.6,1-0.2,0.3,0.9,0.9c-0.5,1.1-1.1,1.2-2.2,1.7c0.6,0.7,0.3,0.5,1.3,0.9c-0.7,1.1,0,0.5-1.7,0.4c0.4,1,0.2,0.7,0.9,1.3
				C9,7.7,9.4,7.5,8.6,7.8C9,9.2,8.8,8.9,9.9,9.5C9.4,9.9,8.9,9.9,7.8,9.9c0.7,0.8,0.9,1,2.2,1.3c-0.6,1.1-0.9,0.9-2.6,0.9
				c0.9,1.6,1.6,1.5,0,2.6c0.2,1.8,0.1,1.5,1.3,2.2c-0.1,0.1-0.3,0.3-0.4,0.4c-0.7,0.3-3.2,0-3.9-0.4c-1,0.1-1.1,0.2-1.7,0.4
				c0.3,0.3,0.6,0.6,0.9,0.9c-0.5,1-0.4,0.8-1.3,1.3c0.5,1.1,1.1,1.2,2.2,1.7c-0.9,0.6-1.6,0.3-2.6,0c-0.1,0.1-0.3,0.3-0.4,0.4
				c0.5,1.4,0.2,2,1.7,2.6c-0.6,1.1-0.2,0.7-1.7,0.9c0.5,1.2,0.1,0.8,1.3,1.3v0.9c-0.9-0.2-0.8-0.1-1.3-0.4H0.4
				c0.3,1.6,0,1.2,1.3,1.7c-0.6,1.1-0.2,0.7-1.7,0.9c0.5,2.2,0.7,4.9,3,5.6c-0.4,1.4,0.2,0.7-0.9,1.3c1.5,3.3,3.2,5.1,3.4,8.6
				c0.3-0.3,0.6-0.6,0.9-0.9c0.3,0.3,0.6,0.6,0.9,0.9c3.5,4.8,2.1,16.9,5.2,21.6v0.9c-0.3-0.3-0.6-0.6-0.9-0.9h-0.4
				c1.2,10.1,4.4,17.6,6.9,26.7c4.2,15.7,6.4,30.2,10.8,45.7c4.3,15.3,4,29,8.6,43.1c1.2,3.8,1.5,8.8,3.9,11.6
				c0.4,0.5,1.1,0,1.7,0.4l1.3,2.6c0.6,0.1,1.1,0.3,1.7,0.4c1.1,1.2,1.1,3.5,2.2,4.7c0.4,0.3,0.1,0.2,0.9,0.4
				c0.2-0.7,0.3-0.7,0.4-1.7c0.7,0.5,0.9,0.9,1.3,1.7c1.1-0.8,0.6,0,0.4-1.3c0.1-0.1,0.3-0.3,0.4-0.4c2.4,1.2,4.1,5.8,6,7.8
				c1.5,1.1,3.2,0.7,5.2,0.4c0.6,1.3,1.2,2.9,2.2,3.9v0.4H66c-0.1-1.4,0.1-2.1-0.4-3v-0.9c1.1,1.1,2.3,2.3,3.4,3.4
				c2,0.9,1.9-2.8,4.3,0.9h0.9c-0.4-1.9-0.8-3.3-2.2-4.3c0.3-1.3,0.1-1,0.9-1.7c0.6-0.3,0.5-0.1,1.3,0.4H75v-2.2h1.3
				c-0.6-1.7-1.1-3.4-1.7-5.2c0.3-0.4,0.2-0.1,0.4-0.9c1.1,0.3,1.5,0.6,2.2,1.3H78l-2.2-2.2v-0.9c0.5,0.3,0.9,0.5,1.3,0.9
				c1-0.1,1.2-0.1,1.7-0.4c1-1.5,0.3-4.7,1.3-6c0.8-0.4,0.9-0.2,1.7,0.4h0.9c-0.5-1.7-1.3-2.2-1.7-3.9c1.5-0.8,2.1-0.6,3.9-0.9
				c0-9.6-2.7-15.5-4.7-22.4c-0.7-2.3,1.2-15.7,1.7-18.1v-4.7c1.9-7.9,2.6-17.4,4.7-25c1-3.4,0.1-7.1,1.3-10.3
				c3.8-10.6,5.1-23.4,8.6-34.1c0.1-1.6,0.3-3.2,0.4-4.7C101.7,53.9,106.9,35.1,104.8,18.1z M12.9,68.6c-0.7-0.3-0.4-0.1-0.9-0.4
				C12.8,68.4,12.5,68.2,12.9,68.6z M13.4,71.6h-0.4v-0.9h0.4V71.6z M31.9,131.9c0.1,2.1,1.4,4.7,0.9,5.6v0.4
				c-1.4-1.7-1.5-4.2-1.7-6.5C31.3,131.6,31.6,131.8,31.9,131.9z M32.8,138.4h0.4v0.9h-0.4V138.4z M33.2,139.7h0.4v0.9h-0.4V139.7z
				 M34.1,141v1.3c0,0-0.4,0.1-0.4-1.3H34.1z M34.5,143.1c-0.7-0.3-0.4-0.1-0.9-0.4C34.4,143,34.1,142.8,34.5,143.1z M34.1,144h0.4
				v0.9h-0.4V144z M34.5,145.3h0.4v0.9h-0.4V145.3z M35.4,147v0.9h-0.4V147H35.4z M34.9,148.3h0.9v0.9h-0.9V148.3z M35.4,149.6h0.9
				v1.3C35.1,150.3,35.7,151,35.4,149.6z M35.8,151.3c0.7,0.3,0.4,0.1,0.9,0.4h-0.4c-0.1,0.1-0.3,0.3-0.4,0.4V151.3z M36.2,152.6
				h0.4v0.9h-0.4V152.6z M36.6,154.3h0.4v0.9h-0.4V154.3z M37.5,156.5h-0.4v-0.9h0.4V156.5z M44,186.3v-0.9h0.4v0.9H44z M47.4,194
				H47c-1.1-2.4-2-4.2-2.6-7.3c1.6,1.3,1.7,4.1,3,5.6V194z M68.1,120.7c-0.1,0.1-0.3,0.3-0.4,0.4v-0.9c0.7,0.3,0.4,0.1,0.9,0.4H68.1
				z M69,117.3v0.9h-0.4v-2.6h0.9C69.3,116.5,69.3,116.8,69,117.3z M69.8,112.5v0.9h-0.4v-1.7h0.9C70,112.4,70.2,112.1,69.8,112.5z
				 M70.3,107.4c0.4,0.6,0.4,1.1,0.4,2.2C70.3,109,70.3,108.4,70.3,107.4z M71.1,105.6v0.4h-0.4c0.1-0.9,0.3-1.7,0.4-2.6
				C71.6,104.2,71.6,104.9,71.1,105.6z M72,101.3v0.9h-0.4V100h0.9C72.3,100.9,72.3,100.9,72,101.3z M72.9,97.4v0.9h-0.4v-2.2h0.9
				C73.1,97,73.2,97,72.9,97.4z M73.3,92.3c0.4,0.6,0.4,1.1,0.4,2.2C73.3,93.9,73.3,93.4,73.3,92.3z M74.6,91h-0.9
				c0.1-1,0.2-1.1,0.4-1.7h0.4V91z M75,87.5V88c-0.3-0.5-0.3-0.4-0.4-1.3h0.9C75.2,87.4,75.4,87.1,75,87.5z M75.9,84.9
				c-0.3-0.5-0.3-0.4-0.4-1.3h0.4V84.9z M86.7,43.5h-0.4v-0.9h0.4V43.5z M87.1,40.5h-0.4v-0.9h0.4V40.5z M90.1,29.3h-0.9
				c0.1-0.6,0.3-1.1,0.4-1.7h0.4V29.3z M90.1,24.6c0.3,0.5,0.3,0.7,0.4,1.7C90.2,25.8,90.2,25.6,90.1,24.6z M205.2,56
				c-5-3.8-9.8-8.5-16.4-10.8c-1.6-0.1-3.2-0.3-4.7-0.4c-3.1-0.9-16.1-3.2-19,0c-1.2-0.3-1.9-1.2-3.9-1.3c-0.2-0.7-0.4-1-0.4-2.2
				c-1,0.5-0.6,0.6-1.3,1.3v0.4c-0.3-0.4-0.6-1.2-0.9-1.7c-1.2,0-1.8-0.2-2.6-0.4c-0.1,0.1-0.3,0.3-0.4,0.4c0.5,1,0.8,1.2,1.7,1.7
				c-0.1,0.1-0.3,0.3-0.4,0.4V44c-0.3-0.1-0.6-0.3-0.9-0.4V44h-0.9c0.4,1,0.2,0.7,0.9,1.3c-0.7,0.8-0.4,0.6-1.7,0.9
				c0.5,1,0.4,0.8,1.3,1.3c-0.4,0.4-0.8,0.6-1.3,0.9l1.3,1.3c-0.4,0.4-0.8,0.6-1.3,0.9c0.5,1.1,0.4,0.9,1.7,1.3v0.4
				c-0.7,0.1-1.4,0.3-2.2,0.4c0,3.6-0.5,8.3,0.4,11.2c0.3,0.9,1.8,3,1.7,4.3c-0.4,15.3,0.3,24,0,38.8c-0.8-1.3-0.5-4.9-0.4-6.9
				c-2.6,4.2,0,9.6-1.3,14.7c-1.1,4.4-0.9,11.4-0.9,18.1c0.1,1.7,0.3,3.4,0.4,5.2c-0.7,4.2-0.9,10,0,14.2c1.6,7-1.2,13.4,0,19.8
				c0.5,2.9,1.3,8.9,1.7,12.9h0.9c-0.3-0.8-0.4-3.1-0.9-3.9v-2.6h0.4c1.6,4.1,1.8,10.9,1.7,16c0.9,0.9,1.7,1.7,2.6,2.6
				c0.9,0.6,2.1,0.7,3.9,0.4c2.1,8.5,14,8.2,19.8,10.8c0.6-0.5,0.8-0.6,1.7-0.9c0.1-2.4,1-5.4,0.4-6.5V200c1.6,0.4,3.8,1.5,4.7,2.6
				c2-0.4,1.8-0.8,1.7-3c0.6,0.6,1.1,1.1,1.7,1.7h0.4c-0.2-0.9-0.4-1.6-0.9-2.2c0.6-2.5,1.4-1.3,3-2.6c1-1.6,2-3.2,3-4.7
				c2-1.4,4.4-1.4,6-3c5.2-5.3,10.4-11.6,14.7-17.7c1.7-2.4,2.7-5.3,4.7-7.3v-0.4h0.4c-2.2,6.8-14.2,21.8-19.8,25.4v0.9
				c6.3-2,12.9-13.1,16.4-18.5c12-18.8,26.1-43,15.1-71.6C231.2,83.2,218.3,65.8,205.2,56z M158.2,89.7c-1-1.4-0.9-4.1-0.9-6.5h0.9
				C158.3,85.9,158.3,86.9,158.2,89.7z M169,46.1c-1,0.3-1.1,0.3-1.7,0.9h-2.2v-0.4c0.5-0.2,1.3-0.5,1.7-0.9h2.2V46.1z M174.6,52.2
				c-1.2-0.3-0.7,0.3-0.9-0.9h0.9V52.2z M212.1,86.7c-1.6-1.1-2.1-2.6-3.4-3.9c-3.3-3.3-8-5.8-10.8-9.5
				C202.5,74.9,209.7,82.6,212.1,86.7z M213.8,144c-3.8,6.1-7.4,11.6-11.6,17.2l-5.2,5.2h-0.9c1.3-3.5,5.6-6.1,7.8-9.1
				c5-6.9,10-14,14.2-21.6C219,138,215,142.1,213.8,144z M199.6,160.4c1.1-1.8,2.8-3.1,3.4-5.2c0.3,0.4,0.2,0.1,0.4,0.9
				c-1.3,1.2-2.5,2.8-3.4,4.3H199.6z M206.1,151.8c1-1.6,2-3.2,3-4.7c0.1,0.1,0.3,0.3,0.4,0.4h-0.4c-0.5,1.4-1.6,2.9-2.6,3.9v0.4
				H206.1z M210.4,145.3c1-1.7,2-3.4,3-5.2c0.4,1.1-1.4,3.3-2.2,4.7c-0.1,0.1-0.3,0.3-0.4,0.4H210.4z M219,127.2
				c-4.7,10.9-10.2,19.9-16.8,28.9c-2.8,3.8-6.9,6.8-9.5,10.8h-0.9c-0.5-2.4-2.4-10.4,0-11.6c-0.5-0.3-0.4-0.3-1.3-0.4
				c-0.1-7.6-0.3-14.7-1.7-21.6l-0.4-7.8c0.1-0.5,1-1.8,0.9-2.6c-0.3-0.1-0.6-0.3-0.9-0.4c0.3-1.1,0.6-2.3,0.9-3.4
				c-0.8-5.7-0.6-11.5,0-17.2c0.4-4.5-1.6-9-0.4-13.8c1.3-5.7,0.9-12.2,0.9-18.1c6.3,1,12.9,9,16.8,12.9c5,5,12.5,12.3,15.5,19
				C225.6,109.6,221.8,120.8,219,127.2z M226.8,162.5h-0.4v-0.9h0.4V162.5z M333.3,204.4h0.9c-0.3-5.3-2.3-7.7-3.9-11.2
				c-3.7-8.5-7.7-16.5-11.2-24.6c-2-4.5-3.3-10.3-6.5-13.8c0.4-2.5,7.2-5.5,9.5-6.5l0.4-0.4v-0.4c-1.5,0.2-3.6,1.1-5.4,2.1
				c2.3-1.4,4.3-3.1,5.9-4.7h0.4V144c-1.9,0.5-4.3,1.8-5.6,3h-0.9v-0.4c2.1-1,5.1-2.1,6.5-3.9c0.7-0.3,0.4-0.1,0.9-0.4h-0.4
				c-0.6-0.2-11.8,4.5-12.9,5.6H310c1.7-3,10.1-4.8,12.9-7.3h0.4v-0.9c-2.6,0.5-4.9,1.4-6.5,3H316v-0.9c1.9-0.5,4.3-1.8,5.6-3h0.4
				V138c-1,0.3-1.1,0.3-1.7,0.9h-1.7v-0.4c0.8-0.4,1.6-0.7,2.2-1.3h0.4v-0.9c-2.8,0.7-10.9,5-12.5,6.9h-0.9v-0.9
				c3.4-1.6,7.8-3.5,10.3-6h0.4v-0.9c-1,0.3-2.1,0.8-3.3,1.3c-1.1,0.6-2.3,1.2-3.5,1.7c-1.8,1-3.4,2-4.4,3.1H307v-0.9
				c1.5-0.7,3.2-1.4,4.9-2.2c1.1-0.6,2.3-1.2,3.5-1.7c1.4-0.8,2.7-1.6,3.7-2.6h0.4v-0.4c-1.7,0.2-2.9,0.8-3.9,1.7h-0.4
				c0.5-0.7,0.9-0.9,1.7-1.3v-0.9c-2.2,0.7-5.3,2.3-6.9,3.9h-0.9v-0.4c1.8-0.9,4.1-2.5,5.6-3.9h0.4v-0.9c-3.1,0.8-7,2.7-9.1,4.7
				h-1.3c0.1-0.1,0.3-0.3,0.4-0.4c1.1-1.4,3.5-2.3,5.2-3l0.4-0.4v-0.4c-1.8,0.5-4,1.4-5.2,2.6c-3.2-0.7-6-12.9-7.3-16.4
				c-4.7-12-6.9-25-11.2-37.9c-2-6.1-4.9-16.8-4.7-21.1h-1.7c0.6-1-0.2-0.3,0.9-0.9c-0.2-0.6-1.4-2-2.2-3.4h-2.2v-1.3
				c-1.7-0.8-2.7-1.7-4.3-0.4c-2.1-0.2-2.6-1.3-2.2-2.6c-2.3-1.6-3.6-0.4-5.2-2.6H263c-0.3,1.6-0.8,2.4,0.4,3.4
				c-0.5,0.3-0.7,0.3-1.7,0.4c0.8,3.7-1.7,8.1-0.9,14.7h-2.6c0.4,1,0.2,0.7,0.9,1.3c-0.6,1.1,0.1,0.5-1.3,0.9c0.6,1-0.2,0.3,0.9,0.9
				c-0.6,1.1-0.2,0.7-1.7,0.9c0.6,1-0.2,0.3,0.9,0.9c-0.6,1,0.2,0.3-0.9,0.9c0.3,0.3,0.6,0.6,0.9,0.9c-0.6,1,0.2,0.3-0.9,0.9
				c0.5,1,0.4,0.8,1.3,1.3c-0.7,0.8-0.4,0.6-1.7,0.9c1.3,6.2,0.3,13.8-1.7,22.9c-1,4.3-0.5,8.8-1.3,12.5c-1.3,5.5,0,10.3-1.3,16
				c-2.8,12.1-2,25.6-4.7,37.5v6c-0.9,3.5-1.7,8.6-2.2,11.2c-0.7,3.6,2.8,6.4-0.4,10.8c-0.2,7.3,1.6,4,4.3,7.3
				c1.2-0.4,0.9-0.6,1.7-1.3c0.5,1.1,1,1.9,1.3,3c2.9,0.6,5.5,1.7,7.8,3c0.5-0.7,1.1-1.5,1.7-2.2c0.4-1.2,0.7,0.4,0.9,0.9
				c0.3-0.4,0.6-1.4,0.9-1.7v-0.4c1.2,1.5,0.7,4.3,1.7,6v0.9c0.5-0.8,0.4-3.1,0.9-3.9v-0.9c0.9,0.4,1.2,0.6,1.7,1.3
				c0.2,0.3,0.4,2.5,0.4,3.9h0.4c0.2-1-0.3-2.7,0.4-3.9c0.5-0.2,0.8,0.1,1.7,0c0.8,2.3,1,3.4,2.6,4.7c0.6,0.2,2.2,0,3.9,0.4
				c0.7-1.8,1.7-3.4,2.2-5.2h0.9c0.3,1.2,0.3,2.2,0.4,3.9c0.4-0.6,0.5-2.4,0.9-3c0.9-1.3,0.8,1.3,1.3,0.9v-0.9
				c1.1,0.7,0.6,1.9,1.3,3c0.1,0.1,0.3,0.3,0.4,0.4c0.5-4.8,2.2-10,3.4-15.1c0.7-2.7-0.9-3.9-1.3-5.2V185c0.6-2.7,1.6-13.4,3.4-16.4
				c0.3-3.2,9.3-9.1,12.5-9.5c0.5,3.2,2.4,5.7,3.4,8.2c3,6.9,5.1,13.4,8.2,20.3c1.6,3.6,4.4,7.2,6,11.2c0.1,0.1,0.3,0.3,0.4,0.4h0.4
				c-0.3-1.7-0.7-3.3-1.7-4.3V194h0.4c1,2,2,4.9,3.4,6.5v0.4h0.4c-0.1-1.7-0.5-2.9-1.3-3.9v-0.4c2,1.4,3.3,4.6,4.3,6.9
				c0.1,0.1,0.3,0.3,0.4,0.4h0.4c-0.2-1.5-0.5-2.2-1.3-3v-1.3h0.4c0.5,1.9,1.4,3.1,2.2,4.7c0.1,0.1,0.3,0.3,0.4,0.4h0.4
				c-0.2-1.5-0.6-2.5-1.3-3.4v-0.9h0.4c0.5,1.8,1.4,3.6,2.6,4.7v0.4h0.9c-0.3-1.2-0.6-2.2-1.3-3v-0.9
				C332.3,202.3,332.7,203.2,333.3,204.4z M316,139.7c1-0.4,0.7-0.2,1.3-0.9c0.7,0.3,0.4,0.1,0.9,0.4c-0.5,0.3-0.9,0.5-1.3,0.9H316
				V139.7z M257.4,91.8v0.4H257c0.4-2.2,0.9-4.3,1.3-6.5C259.1,87.1,258.3,90.8,257.4,91.8z M297.9,155.2c0.5-0.3,0.9-0.5,1.3-0.9
				c0.7,0.3,0.4,0.1,0.9,0.4c-0.5,0.3-0.9,0.5-1.3,0.9h-0.9V155.2z M300.5,156.1v0.4c-1-0.1-0.8,0.5-0.9-0.4H300.5z M298.8,157.4
				c-2.4,1.4-6.1,3-7.8,5.2h-0.4c1.1-2.9,5.3-3.6,7.3-5.6C298.7,157.2,298.3,157,298.8,157.4z M291,160v-0.9
				c0.5-0.3,0.9-0.5,1.3-0.9h0.4c-0.1,0.4-0.3,0.9-0.4,1.3c-0.7,0.3-0.4,0.1-0.9,0.4H291z M295.8,156.5c0.1-0.1,0.3-0.3,0.4-0.4
				c0.7,0.3,0.4,0.1,0.9,0.4c-0.1,0.1-0.3,0.3-0.4,0.4C296.6,156.9,294.9,156.8,295.8,156.5z M290.2,132.8v-2.2h0.9
				c0.6,2.6,1.8,7.2,3.4,9.1c-0.6,1.6-2.3,2.4-4.3,2.6C290.1,139.5,289.2,134.6,290.2,132.8z M289.7,144.9c0.1-0.1,0.3-0.3,0.4-0.4
				c0.8-1.6,2.7-1.9,3.9-3h0.9c-0.8,2.1-2.8,2.1-4.3,3.4H289.7z M291.4,165.1h-1.3c2.4-3.6,7.7-4.5,10.8-7.3
				c0.7,0.3,0.4,0.1,0.9,0.4C298.6,159.8,293.5,162.3,291.4,165.1z M312.1,151.8c1.4-0.4,2.8-1,4.1-1.7c-1.4,0.8-2.6,1.8-3.3,2.6
				h-0.9V151.8z M135.4,79.8h-0.4c0.3-0.3,1-0.6,1.3-0.9c0.3-0.5,0.3-0.4,0.4-1.3h2.2c-0.7-0.5-1.8-0.5-3-0.4v-0.9h6v-0.4
				c-2-0.7-4.8-0.9-7.3-0.9v-0.4c1.6-0.8,2.4-1.3,5.2-1.3v-0.4c-0.5-0.2-2.7,0-3.4-0.4c-0.6-0.4-0.1-0.9-1.3-1.3v-0.9
				c1.1-0.6,1.5-0.9,3.4-0.9V69c-1.4-0.1-2.9-0.3-4.3-0.4v-0.4c0.7-0.2,1-0.4,2.2-0.4c-1-0.8-2.1-1.5-3-2.2v-1.3
				c0.9-0.2,0.8-0.1,1.3-0.4c0.7-0.3,0.4-0.1,0.9-0.4c-2.2-0.8-3.4-1.7-6-1.7c0.3-0.7,0.1-0.4,0.4-0.9c-0.3-1.2-2.6-3-3.4-3.4
				c0.3-0.3,0.6-0.6,0.9-0.9v-0.9c-1.7,0-2.2,0.1-3,0.9c-1.2-0.7-0.4,0.1-0.4-1.3c-1.3,0.2-1.5,0.2-2.2,0.9h-0.9v-2.2
				c-4.2,0.8-6.7,3.4-10.8,3.9c0.4,1.4,1.1,2.3,2.2,3c-0.7,0.8-1.3,1-2.6,1.3c0.3,1.9-0.9,6.5,0,9.5c0.1,0.4,1.2,1.5,1.3,1.7
				c0.3,0.9-0.6,1.9-0.4,2.2c1.7,3.9,4.7,5.2,5.2,9.9c3.9-0.6,5.9,2.4,8.2,4.7c1.1-0.6,0.5,0.1,0.9-1.3c2.8,0.3,5.6,1.3,6.9-0.9h6.9
				c-0.7-1.2-4.8-1.3-6.5-1.3c1.2-2.2,6.4-2.3,9.9-2.2v-0.4c-2.1-0.9-3.9-1.4-7.3-1.3c1.2-2.5,3.5-1.3,5.2-2.2h3.4v-0.4
				C140.4,79.2,136.7,80.5,135.4,79.8z M127.2,90.1c-0.4,0.3-1.7,0.6-2.2,0.9l-0.4,0.4c1.4,0.3,5.9,0.4,7.3,1.3
				c0.4-0.8,0.2-0.3,0-1.3h8.2v-0.9C136.3,90.3,131.6,90.1,127.2,90.1z M134.9,183.7c-0.8-11.5-2.7-28.5-0.9-38.4
				c0.4-2.2-0.8-3.9-0.9-5.2c-0.1-1.4,0.8-0.4,0.9-1.3c0.2-2.9-1.6-7.4-0.9-10.3c0.3-0.1,0.6-0.3,0.9-0.4c0.6-2.3-1.4-2.5-1.7-3.4
				c-0.6-1.5,1.1-4.7,0.4-6.9c-0.3-0.9-0.8-1.6-0.9-3.4c-1,0.1-1.2,0.1-1.7,0.4h-0.9c0.1-0.6,0.3-1.1,0.4-1.7h1.7
				c-0.1-2.7-1.4-2.9-3.9-3c-0.1-1.3-0.3-2.6-0.4-3.9c-1.1,0-1.6,0.1-2.2,0.4c-1.4-0.4-0.7,0.2-1.3-0.9c-0.6-1.3,0.4-1.6,1.3-2.6
				c-1.7-0.3-3.4-0.6-5.2-0.9v-1.7h-2.6c0.1-0.1,0.3-0.3,0.4-0.4c0.1-0.3,0.3-0.6,0.4-0.9h1.3V97c-2,0-5.8-0.7-6.9,0h-1.3
				c0.5-0.8,1.1-1.6,1.7-2.2v-0.4c-1.9-0.1-4.9-0.3-6,0.4c-1,0.4-0.9,0.7-1.7,1.3c0.6,0.6,1.1,1.1,1.7,1.7c-0.3,0.3-0.6,0.6-0.9,0.9
				l0.9,0.9c-0.4,0.3-1.2,0.6-1.7,0.9l1.3,1.3c-0.4,0.4-0.8,0.6-1.3,0.9c0.4,1.6,0.9,3.5,1.7,4.3c-3.7,4.6,1.8,9.6,0.4,15.5
				c-1.9,7.8-2.6,18.6-1.7,27.6c0.4,4.8-0.4,10.6,0.4,14.7c0.9,4.4,0,12.7,2.2,15.5v0.9h0.9c-0.2-0.9-0.4-2-0.9-2.6v-4.3h0.4
				c1.5,3.6,1.1,9.9,2.6,13.8c0.1,0.1,0.3,0.3,0.4,0.4h0.4c-0.2-0.9-0.4-1.6-0.9-2.2v-0.9c3.9,2.2,3.1,11,9.9,13.4
				c0.5,0.3,0.4,0.3,1.3,0.4c0.1-1.2,0.3-2.7,0.9-3.4c0.1-0.1,0.3-0.3,0.4-0.4v0.4c1.4,1,1.4,2.2,1.3,4.7c1.2-0.7,0.8-1.4,0.9-3
				c1.5,0.8,2.1,1.7,3.9,2.2c2.2,0.8,1.3-2.2,2.2-3.9c0.1-0.1,0.3-0.3,0.4-0.4c0.6,1.1,1.1,2.3,1.7,3.4c0.1,0.1,0.3,0.3,0.4,0.4h0.4
				c-0.4-1.8-0.9-5.2-1.3-5.6v-1.7c1,0.4,0.7,0.2,1.3,0.9h0.4c-0.3-1.3-0.8-2-1.3-3c1.3-0.8,1.5-3.1,0.9-4.3
				c0.5-0.3,0.4-0.3,1.3-0.4c0.1-0.4,0.3-0.9,0.4-1.3C135.6,183.4,136.3,183.6,134.9,183.7z M133.2,135.8h0.4v0.9h-0.4V135.8z
				 M106.5,103.5h0.9C107,104.2,107.2,104,106.5,103.5z M107.4,96.6c0.4,0.3,0.9,0.6,1.3,0.9v0.4C106.9,97.5,107.3,97.8,107.4,96.6z
				 M107.8,122.9h0.9c-0.3,5.6-0.6,11.2-0.9,16.8C105.8,137.1,107.7,127.2,107.8,122.9z M108.2,170.3h-0.4c-0.1-0.4-0.3-0.9-0.4-1.3
				h0.9V170.3z M108.6,147v0.4h-0.4c0-1.3,0.2-2.2,0.4-3C109.2,145.2,109.2,146.2,108.6,147z M132.8,148.3c-0.1,0.1-0.3,0.3-0.4,0.4
				v-0.9c0.7,0.3,0.4,0.1,0.9,0.4H132.8z M155.6,97.4v2.6C156.2,99.3,156.2,98.2,155.6,97.4z M244.5,181.1v1.3h0.4
				C244.7,181.5,244.8,181.5,244.5,181.1z M113.8,193.6h0.4c-0.3-0.7-0.1-0.4-0.4-0.9V193.6z"/>
		</g>
	</g>
</g>
</svg>
