<?xml version="1.0" encoding="utf-8"?>
<!-- Generator: Adobe Illustrator 22.0.1, SVG Export Plug-In . SVG Version: 6.00 Build 0)  -->
<svg version="1.1" id="Layer_1" xmlns="http://www.w3.org/2000/svg" xmlns:xlink="http://www.w3.org/1999/xlink" x="0px" y="0px"
	 viewBox="0 0 614.7 52.5" style="enable-background:new 0 0 614.7 52.5;" xml:space="preserve">
<style type="text/css">
 	.st0{fill:#FFFFFF;}
 </style>
<g>
	<g>
		<path class="st0" d="M0.5,48.7C0.1,48.4,0,48,0,47.5V5c0-0.5,0.1-0.8,0.5-1.2l3.4-3.3C4.2,0.1,4.6,0,5.1,0h16.7c0.5,0,0.8,0.1,1.2,0.5l3.4,3.3
			c0.4,0.3,0.5,0.7,0.5,1.2v9.2c0,0.6-0.4,1-1,1h-7c-0.6,0-1-0.3-1-1v-3.9c0-0.5-0.1-0.8-0.5-1.2L17.3,9c-0.4-0.3-0.7-0.5-1.2-0.5
			h-5.4c-0.5,0-0.8,0.1-1.2,0.5L9.5,9.1C9.1,9.5,9,9.8,9,10.3v31.9c0,0.5,0.1,0.8,0.5,1.2l0.1,0.1c0.4,0.3,0.7,0.5,1.2,0.5h5.4
			c0.5,0,0.8-0.1,1.2-0.5l0.1-0.1c0.4-0.3,0.5-0.7,0.5-1.2v-3.9c0-0.6,0.4-1,1-1h7c0.6,0,1,0.3,1,1v9.2c0,0.5-0.1,0.8-0.5,1.2L23,52
			c-0.4,0.3-0.7,0.5-1.2,0.5H5.1c-0.5,0-0.8-0.1-1.2-0.5L0.5,48.7z"/>
		<path class="st0" d="M84.4,3.8c0.4,0.3,0.5,0.7,0.5,1.2v42.6c0,0.5-0.1,0.8-0.5,1.2L81,52c-0.4,0.3-0.7,0.5-1.2,0.5H63.1
			c-0.5,0-0.8-0.1-1.2-0.5l-3.4-3.3C58.2,48.4,58,48,58,47.5V5c0-0.5,0.1-0.8,0.5-1.2l3.4-3.3C62.3,0.1,62.6,0,63.1,0h16.7
			c0.5,0,0.8,0.1,1.2,0.5L84.4,3.8z M74.1,8.6h-5.4c-0.5,0-0.8,0.1-1.2,0.5C67.1,9.4,67,9.7,67,10.2v32.1c0,0.5,0.1,0.8,0.5,1.2
			c0.4,0.3,0.7,0.5,1.2,0.5h5.4c0.5,0,0.8-0.1,1.2-0.5c0.4-0.3,0.6-0.7,0.6-1.2V10.2c0-0.5-0.1-0.8-0.6-1.2
			C74.9,8.7,74.6,8.6,74.1,8.6z"/>
		<path class="st0" d="M143.2,47.5c0,0.5-0.1,0.8-0.5,1.2l-3.4,3.3c-0.4,0.3-0.7,0.5-1.2,0.5h-16.7c-0.5,0-0.8-0.1-1.2-0.5l-3.4-3.3
			c-0.4-0.3-0.5-0.7-0.5-1.2V1c0-0.6,0.4-1,1-1h7c0.6,0,1,0.3,1,1v41.4c0,0.5,0.1,0.8,0.5,1.2c0.4,0.3,0.7,0.5,1.2,0.5h5.5
			c0.5,0,0.8-0.1,1.2-0.5c0.4-0.3,0.5-0.7,0.5-1.2V1c0-0.6,0.4-1,1-1h7c0.6,0,1,0.3,1,1V47.5z"/>
		<path class="st0" d="M175.7,52.5c-0.6,0-1-0.3-1-1V1c0-0.6,0.4-1,1-1h7.8c0.6,0,0.9,0.3,1.1,0.8l10.3,28.3c0.4,0.9,1.1,0.8,1.1-0.2V1
			c0-0.6,0.4-1,1-1h7c0.6,0,1,0.3,1,1v50.6c0,0.6-0.4,1-1,1h-7.8c-0.6,0-0.9-0.3-1.1-0.8l-10.3-28.3c-0.4-0.9-1.1-0.8-1.1,0.2v27.9
			c0,0.6-0.4,1-1,1H175.7z"/>
		<path class="st0" d="M263.9,7.5c0,0.6-0.4,1-1,1h-7.7c-0.6,0-1,0.3-1,1v42.1c0,0.6-0.4,1-1,1h-7c-0.6,0-1-0.3-1-1V9.5c0-0.6-0.4-1-1-1h-7.7
			c-0.6,0-1-0.3-1-1V1c0-0.6,0.4-1,1-1h26.4c0.6,0,1,0.3,1,1V7.5z"/>
		<path class="st0" d="M352.1,52.5c-0.6,0-1-0.3-1-1v-37V2.6V1c0-0.6,0.4-1,1-1h21.5c0.5,0,0.8,0.1,1.2,0.5l3.4,3.3c0.4,0.3,0.5,0.7,0.5,1.2
			v25.4c0,0.5-0.1,0.8-0.5,1.2l-3.3,3.2c-0.4,0.4-0.5,0.8-0.4,1.3l4,15.4c0.1,0.6-0.2,1-0.9,1h-6.8c-0.6,0-1-0.3-1.1-0.8l-4-15.5
			c-0.1-0.6-0.5-0.8-1.1-0.8h-3.5c-0.6,0-1,0.3-1,1v15.3c0,0.6-0.4,1-1,1H352.1z M368,26.8c0.5,0,0.8-0.1,1.2-0.5v-0.1
			c0.4-0.3,0.5-0.7,0.5-1.2V14.2v-0.7c0-0.5-0.1-4.1-0.5-4.4c-0.4-0.3-0.7-0.5-1.2-0.5h-6.9c-0.6,0-1,0.3-1,1v4.4v11.9
			c0,0.6,0.4,1,1,1H368z"/>
		<path class="st0" d="M410.9,52.5c-0.6,0-1-0.3-1-1V15.4V2.8V1c0-0.6,0.4-1,1-1H432c0.5,0,0.8,0.1,1.2,0.5l3.4,3.3c0.4,0.3,0.5,0.7,0.5,1.2
			v25.4c0,0.5-0.1,0.8-0.5,1.2l-3.4,3.3c-0.4,0.3-0.7,0.5-1.2,0.5h-12.2c-0.6,0-1,0.3-1,1v15.3c0,0.6-0.4,1-1,1H410.9z M426.3,26.8
			c0.5,0,0.8-0.1,1.2-0.5l0.1-0.1c0.4-0.3,0.5-0.7,0.5-1.2V15v-0.7v-0.7c0-0.5-0.1-4.1-0.5-4.4h-0.1c-0.4-0.3-0.7-0.5-1.2-0.5h-6.4
			c-0.6,0-1,0.3-1,1v4.3v0.9v11c0,0.6,0.4,1,1,1H426.3z"/>
		<path class="st0" d="M487.3,45c-0.1-0.6-0.5-0.8-1.1-0.8l-10.4,0c-0.6,0-1,0.3-1.1,0.8l-0.6,3l0.1-0.5l-0.8,4.1c-0.1,0.6-0.5,0.8-1.1,0.8H465
			c-0.7,0-1.1-0.4-0.8-1l12.2-50.6c0.1-0.6,0.5-0.8,1.1-0.8h6.9c0.6,0,1,0.3,1.1,0.8l12.2,50.6c0.2,0.6-0.1,1-0.8,1h-7.1
			c-0.6,0-1-0.3-1.1-0.8l-0.6-2.9l0,0.1l-0.4-2L487.3,45z M483.5,35.7c0.7,0,1.1-0.4,0.9-1l-0.6-2.6l-2.3-14.3
			c-0.1-0.9-0.9-0.9-1.1,0L478,32l-0.6,2.7c-0.1,0.6,0.2,1,0.9,1H483.5z"/>
		<path class="st0" d="M614.7,7.5c0,0.6-0.4,1-1,1H606c-0.6,0-1,0.3-1,1v42.1c0,0.6-0.4,1-1,1h-7c-0.6,0-1-0.3-1-1V9.5c0-0.6-0.4-1-1-1h-7.7
			c-0.6,0-1-0.3-1-1V1c0-0.6,0.4-1,1-1h26.4c0.6,0,1,0.3,1,1V7.5z"/>
	</g>
	<path class="st0" d="M529.4,52.5c-0.6,0-1-0.3-1-1v-37V2.6V1c0-0.6,0.4-1,1-1h21.5c0.5,0,0.8,0.1,1.2,0.5l3.4,3.3c0.4,0.3,0.5,0.7,0.5,1.2v25.4
		c0,0.5-0.1,0.8-0.5,1.2l-3.3,3.2c-0.4,0.4-0.5,0.8-0.4,1.3l4,15.4c0.1,0.6-0.2,1-0.9,1h-6.8c-0.6,0-1-0.3-1.1-0.8l-4-15.5
		c-0.1-0.6-0.5-0.8-1.1-0.8h-3.5c-0.6,0-1,0.3-1,1v15.3c0,0.6-0.4,1-1,1H529.4z M545.3,26.8c0.5,0,0.8-0.1,1.2-0.5v-0.1
		c0.4-0.3,0.5-0.7,0.5-1.2V14.2v-0.7c0-0.5-0.1-4.1-0.5-4.4c-0.4-0.3-0.7-0.5-1.2-0.5h-6.9c-0.6,0-1,0.3-1,1v4.4v11.9
		c0,0.6,0.4,1,1,1H545.3z"/>
	<g>
		<path class="st0" d="M295.4,52.5c-0.6,0-1-0.3-1-1v-7.7V21.8V1c0-0.6,0.4-1,1-1h23.8c0.6,0,1,0.3,1,1v6.6c0,0.6-0.4,1-1,1h-14.8
			c-0.6,0-1,0.3-1,1v13.4v2.9c0,0.6,0.4,1,1,1h10.5c0.6,0,1,0.3,1,1v6.6c0,0.6-0.4,1-1,1h-10.5c-0.6,0-1,0.3-1,1v5.4V43
			c0,0.6,0.4,1,1,1h14.8c0.6,0,1,0.3,1,1v6.6c0,0.6-0.4,1-1,1H295.4z"/>
	</g>
</g>
</svg>
