<?xml version="1.0" encoding="utf-8"?>
<!-- Generator: Adobe Illustrator 21.0.0, SVG Export Plug-In . SVG Version: 6.00 Build 0)  -->
<svg version="1.1" id="Layer_1" xmlns="http://www.w3.org/2000/svg" xmlns:xlink="http://www.w3.org/1999/xlink" x="0px" y="0px"
	 viewBox="0 0 505.7 67.8" style="enable-background:new 0 0 505.7 67.8;" xml:space="preserve">
<style type="text/css">
	.st0{fill:#FFFFFF;}
</style>
<g>
	<path class="st0" d="M51.4,10.4c-7.1-5.3-14.2-6.1-20.8-6.1C13.7,4.3,0,17.1,0,32.9c0,7.5,2.1,13,7.1,18.2
		c5.3,5.6,12.6,8.3,22.4,8.3c18.1,0,31.3-12.7,31.3-30.3C60.7,21.9,57.2,14.7,51.4,10.4z M32,55.7c-13.8,0-26-12.1-26-26
		c0-15.1,11.4-21.8,22.8-21.8c13.8,0,25.4,11.6,25.4,25.4C54.3,44.4,47.4,55.7,32,55.7z"/>
	<path class="st0" d="M119.1,7.3l0.2-0.1l0.8-2.1l-0.7,0.1c-1.2,0.1-5.1,0.3-9,0.3c-2.8,0-8.4-0.1-10.2-0.3l-0.8-0.1l0.9,2.1l0.3,0
		c1.7,0.1,5.3,0.6,7.2,0.9l0.4,0.1l0,0.4c0.2,3.5,0.3,15,0.3,18v8.7c0,5.5,0,12.2-4.8,17c-2.4,2.4-6.5,3.7-11.4,3.7
		c-11,0-16.8-8.1-16.8-23.5v-7.2c0-5.8,0.1-14.1,0.3-16.6l0-0.4l0.4-0.1c2.4-0.4,5.5-0.7,7.1-0.9l0.3,0l0.7-2.1l-0.7,0.1
		c-1.8,0.1-7.4,0.3-10.9,0.3c-2.8,0-7.6-0.1-9.7-0.3l-0.6,0l0.4,2.1l0.3,0c2.2,0.3,3.9,0.6,5.2,0.9l0.3,0.1l0,0.3
		c0.2,2.9,0.3,10.6,0.3,16.4v11.5c0,14.3,8.1,22.9,21.8,22.9c6.8,0,12-1.7,16-5.3c5.1-4.6,7.4-11.1,7.4-20.8c0-1.3,0-2.8-0.1-4.4
		c0-1.6-0.1-3.3-0.1-4.7v-3.5c0-2.2,0.1-9.9,0.3-12l0-0.3l0.3-0.1c0.8-0.2,1.7-0.3,2.4-0.5C117.8,7.6,118.5,7.4,119.1,7.3z"/>
	<path class="st0" d="M180.9,0.2l-2.6,0.5l0,0.3c-0.2,1.1-0.5,2.8-0.8,3.9l-0.1,0.3l-0.3,0C174.3,5.5,162.6,6,152.7,6
		c-9.2,0-20.6-0.4-23.5-0.7l-0.4,0l-0.1-0.4c-0.2-1.4-0.3-3.1-0.3-4.1V0.5L126.2,0l0,0.6c0.1,5.5-0.7,13.8-1,17.4l-0.1,1.3l2.2-0.7
		l0.1-0.2c0.2-0.8,0.3-1.8,0.5-2.9c0.3-1.5,0.5-3.1,0.8-4.2l0.1-0.2l0.2-0.1c3.1-1.5,9.7-2.3,19.5-2.4l0.4,0l0,0.4
		c0.2,3,0.3,12.3,0.3,18.1v3.3c0,5.8-0.1,18-0.3,24.5l0,0.4l-0.4,0c-2.4,0.3-7.2,0.8-8.7,0.9l-0.3,0l-0.7,2.1l0.7,0
		c2.1-0.1,11-0.3,12.9-0.3c2.8,0,11.4,0.2,13.1,0.3l0.6,0.1l-0.5-2.1l-1.9-0.2c-2.1-0.2-5.5-0.6-7.2-0.8l-0.4,0l0-0.4
		c-0.2-6.9-0.3-18.9-0.3-24.5v-3.3c0-5.9,0.1-15.1,0.3-18.1l0-0.4l0.4,0c8.4,0.1,17.3,1.3,19.5,2.3l0.3,0.1l0,0.3
		c0,1.8,0,4.8-0.2,7.6l0,0.3l2.2,0.7l0.1-0.5c0-0.4,0.2-1.4,0.3-2.9c0.8-7.1,1.6-14.5,2-15.6L180.9,0.2z"/>
	<path class="st0" d="M222.7,42.8l-2.4,0.5l-0.1,0.3c-0.1,0.4-0.3,0.9-0.4,1.5l0,0.1c-0.5,2-1.3,4.8-2.1,7l0,0.1l-0.1,0.1
		c-1.7,1.4-5.9,3-16.4,3.1l-0.4,0l0-0.4c-0.2-2.8-0.3-12.5-0.3-25.2v-2.7c0-5.3,0.1-15.2,0.3-18.5l0-0.4l0.4,0
		c1.5-0.2,3.1-0.4,4.6-0.6l0.1,0c1.3-0.2,2.4-0.3,3.1-0.4l0.3,0l0.7-2.1l-0.7,0.1c-1.2,0.1-8.2,0.3-12.2,0.3c-3,0-9.4-0.2-11.1-0.3
		l-0.6,0l0.4,2.1l0.3,0c1.6,0.1,5.2,0.6,7.2,0.9l0.4,0.1l0,0.4c0.2,3.1,0.3,12.5,0.3,17.7v4.3c0,6.6-0.1,20.3-0.3,24.5l0,0.4
		l-0.3,0.1c-2,0.4-6.2,0.8-7.1,0.9l-0.3,0l-0.5,2.1l0.6,0c2-0.1,8.8-0.3,11.4-0.3c2.3,0,15.4,0.2,19.1,0.4l0.4,0l0,0.4
		c0,1.4-0.1,3.5-0.2,5.2c-0.1,1.2-0.1,2.2-0.1,2.6v0.3l2.2,0.6l0-0.5c0.7-8.2,2-16,3.9-23.8L222.7,42.8z"/>
	<path class="st0" d="M282.2,58.5l0.7,0.1l-0.4-2.2l-0.3,0c-2.2-0.3-4.1-0.6-5.9-0.9l-0.2,0l-0.1-0.2c-3.1-6.1-6.9-16.2-9.1-22.3
		l-0.9-2.3c-2.7-7.2-6.2-17.9-7.5-22.1l-0.1-0.5l0.5-0.1c1.3-0.3,2.8-0.5,4.6-0.7l0.3,0l0.4-2.1l-0.6,0c-2,0.1-9.5,0.3-10.6,0.3
		c-1.3,0-7-0.1-9.2-0.3l-0.5,0l0.1,2.1l0.5,0.1c1.4,0.2,3.2,0.4,4.8,0.7l0.5,0.1L249,8.6c-9.7,26.2-16.1,42.8-18,46.6l-0.1,0.2
		l-0.2,0c-1.9,0.4-4,0.7-5.9,0.9l-0.3,0l-0.4,2.1l0.6-0.1c1.7-0.1,6.7-0.3,8.2-0.3c2.1,0,8.1,0.1,9.6,0.3l0.6,0.1l-0.5-2.1l-0.3,0
		c-1.5-0.2-3-0.4-4.7-0.8l-0.4-0.1l0.1-0.4c1-5.6,4.4-16.4,5.6-20.1l0.1-0.3l0.3,0c3.3-0.3,13.5-0.8,16.8-0.8l0.3,0l0.1,0.3
		c1.4,3.3,5.6,15.7,7.3,20.9l0.2,0.5l-0.5,0.1c-2.2,0.4-4.6,0.7-6.4,0.8l-0.3,0l-0.7,2.1l0.7,0c1.9-0.1,10.2-0.3,11.5-0.3
		C274.2,58.2,281.4,58.3,282.2,58.5z M244.1,31l0.2-0.6c1.3-3.7,5.2-14.4,7.2-19.2l0.4-1.1l0.4,1.1c1.7,4.5,5.3,14.8,6.8,19.5
		l0.2,0.6L244.1,31z"/>
	<path class="st0" d="M341.5,8.6l0-0.3l0.3-0.1c1.8-0.3,4.6-0.8,5.4-0.9l0.3,0l0.5-2.1l-0.6,0.1c-1.5,0.1-7.4,0.3-8.9,0.3
		c-1.7,0-9.6-0.2-11-0.3l-0.7-0.1l0.7,2.1l0.3,0c1.7,0.1,5.6,0.6,7.5,0.9l0.3,0.1l0,0.3c0.8,6,0.8,36.2,0.8,39.7l0,1.3l-0.8-1
		c-4-5.1-14.5-18.2-16.4-20.5c-1.2-1.4-15.9-20.3-17.5-22.8L301.7,5l-0.3,0c-2.7,0.2-6.6,0.3-10.1,0.4c-1.9,0-3.5,0.1-4.8,0.1
		l-0.6,0l0.5,2l0.3,0c1.8,0.1,5.3,0.4,7.3,0.7l0.4,0.1l0,0.4c-0.1,5.3-0.8,41-1.6,46.4l0,0.3l-0.3,0.1c-1.1,0.2-2.5,0.4-3.7,0.6
		c-0.8,0.1-1.6,0.2-2.2,0.3l-0.3,0.1l-0.4,2.1l0.6,0c1.7-0.1,7.5-0.3,9.7-0.3c2.1,0,9.6,0.2,10.9,0.3l0.6,0.1l-0.4-2.1l-0.3,0
		c-0.3,0-0.8-0.1-1.4-0.1c-1.7-0.2-5.3-0.5-6.7-0.8l-0.3-0.1l0-0.3c-0.5-4.8-0.9-33.4-0.9-42l0-1.3l0.8,1c2.9,3.5,8.8,10.8,13,15.9
		l1.5,1.8c1.5,1.9,2.6,3.2,2.9,3.5c0.3,0.4,1.3,1.6,2.6,3.2l1.3,1.6c6.4,8,18.3,22.8,19.3,24.1l0.8,1.1v-1.4c0-4.3,0.6-35,0.7-38.7
		C340.5,22.2,340.9,12.5,341.5,8.6z"/>
	<path class="st0" d="M400.6,8.6c-4.4-2.1-12.4-3.4-21.2-3.4c-2.7,0-6.6,0.1-10.1,0.2l-0.3,0c-2.5,0.1-4.7,0.1-5.7,0.1
		c-2.2,0-10.1-0.2-11.2-0.3l-0.6-0.1l0.3,2.1l0.4,0c1.6,0.1,5.1,0.6,7.2,0.9l0.3,0.1l0,0.3c0.3,2.7,0.4,13.3,0.4,18v5.8
		c0,9-0.1,20-0.4,22.7l0,0.3l-0.3,0.1c-1.9,0.4-5.6,0.8-7,0.9l-0.3,0l-0.5,2.1l0.6,0c1.8-0.1,17.6-0.1,20.6-0.1
		c29.8,0,40.3-17.1,40.3-31.8C413,18.8,408.5,12.3,400.6,8.6z M376.1,55.1c-1.3,0-5.8-0.3-8.7-1.1l-0.3-0.1l0-0.3
		c-0.3-3.8-0.5-17.1-0.5-20.4v-2.9c0-3.1,0.2-17.7,0.5-21.1l0-0.4l0.4,0c1.6-0.2,4.1-0.3,5.7-0.3c11.7,0,19.8,1.9,25,5.8
		c5.3,4,8,9.6,8,16.6C406.2,42.8,395.8,55.1,376.1,55.1z"/>
	<path class="st0" d="M450,45.4l-2.3,0.8l-0.1,0.2c-0.2,0.6-0.3,1.4-0.5,2.3c-0.3,1.3-0.6,2.8-1,4.2l-0.1,0.2l-0.2,0.1
		c-2.9,1.5-8.6,2.2-17.3,2.3l-0.4,0l0-0.4c-0.2-3.9-0.5-17.9-0.5-22.4v-1.1l0.5,0c6.7,0,11.5,0.5,13.7,1.4l0.3,0.1l0,0.3
		c0,1.7-0.1,3.7-0.1,4.5l0,0.3l1.8,1.1l0.1-0.6c0.1-0.8,0.3-2.3,0.5-4.1c0.5-4.3,1.1-8.6,1.4-9.4l0.3-0.7l-2.3,0.3l-0.1,0.3
		c-0.2,0.9-0.4,1.8-0.6,2.7l-0.1,0.3l-0.3,0.1c-2,0.5-7.9,1.1-14.7,1.2l-0.5,0v-1.2c0-4.5,0.2-16.3,0.4-19.4l0-0.4l0.4,0
		c5.7,0.1,14.6,1.1,16.2,2.7l0.1,0.1l0,0.2c0,1.2,0,3.6,0,4.7l0,1l2.1,0.9l0-0.6c0.2-2.8,1.1-13.8,1.5-15.2l0.2-0.7l-2.3,0.5l0,0.3
		c-0.1,1-0.3,2-0.4,2.8l-0.1,0.3l-0.3,0c-2.3,0.3-10.1,0.4-21.1,0.4c-0.2,0-0.6,0-1.1,0l-0.6,0c-0.8,0-1.8,0-2.9,0l-0.3,0l-1.7-0.1
		c-1.7-0.1-3.4-0.1-4.8-0.2l-0.6,0l0.5,2.1l1.5,0.2c1.8,0.2,4.4,0.5,5.8,0.8l0.3,0.1l0,0.4c0.3,3.4,0.4,14.5,0.4,20.3v3.4
		c0,7.9-0.2,20-0.4,22.7l0,0.3l-0.3,0.1c-2.1,0.4-5.9,0.8-6.9,0.9l-0.3,0l-0.7,2.1l0.6,0c3-0.2,8.8-0.3,11.2-0.3
		c3.2,0,16.9,0.3,20.6,0.6l0.4,0l0,0.4c0,1,0,2.1,0,3.7v0.4l2,0.5l0-0.5c0.3-3.8,1.9-15,2.4-17L450,45.4z"/>
	<path class="st0" d="M478.4,34.1c3.4,4.1,20.1,24,23,26l0.1,0.1l4.2-0.4l-0.6-0.7c-6.7-7.1-17.3-23.9-19.6-28l-0.2-0.4l0.3-0.2
		c4.8-3.4,9.8-9.4,9.8-14.3c0-4-2.4-7.2-6.6-8.9c-4.9-1.9-12.9-2.1-20.1-2.1L454,5.4l0.4,2l0.7,0.1c1.6,0.1,5.2,0.5,6.9,0.7l0.4,0.1
		l0,0.4c0.2,2.9,0.3,14,0.3,17.9V31c0,9.7-0.1,20.9-0.3,24.1l0,0.3l-0.3,0.1c-2.2,0.4-6,0.8-7.1,0.9l-0.3,0l-0.5,2.1l0.6-0.1
		c1.7-0.1,9.5-0.3,10.8-0.3c2.4,0,9.8,0.2,11.6,0.3l0.6,0l-0.5-2.1l-0.3,0c-2-0.2-5.4-0.6-7-0.9l-0.3-0.1l0-0.4
		c-0.2-3.9-0.3-14.2-0.3-19.3v-1.5l0.4,0c1.9,0,6.1-0.2,8.6-0.4l0.2,0L478.4,34.1z M470.3,31.5l-0.5,0v-1.8c0-5.7,0.1-17.4,0.3-21.4
		l0-0.4l0.4,0c16.8,0.2,18.6,7.4,18.6,10.4c0,8.5-7.3,11.5-8.1,11.9C478.8,31,475.1,31.5,470.3,31.5z"/>
</g>
</svg>
