<?xml version="1.0" encoding="utf-8"?>
<!-- Generator: Adobe Illustrator 22.0.1, SVG Export Plug-In . SVG Version: 6.00 Build 0)  -->
<svg version="1.1" id="Layer_1" xmlns="http://www.w3.org/2000/svg" xmlns:xlink="http://www.w3.org/1999/xlink" x="0px" y="0px"
	 viewBox="0 0 430.9 27.5" style="enable-background:new 0 0 430.9 27.5;" xml:space="preserve">
<style type="text/css">
	.st0{fill:#231F20;}
</style>
<g>
	<g>
		<path class="st0" d="M11.8,8.2c-0.1-0.9-0.4-2.6-2.4-2.6c-1.2,0-2.3,0.8-2.3,2.1c0,1.6,0.7,1.9,5.4,4c4.9,2.2,6.1,4.5,6.1,7.5
			c0,3.8-2.2,8.1-9.2,8.1c-7.6,0-9.5-5-9.5-8.3v-0.9h6.7c0,3.1,1.9,3.6,2.7,3.6c1.6,0,2.6-1.3,2.6-2.5c0-1.7-1.1-2.2-5.2-3.9
			C5,14.6,0.4,12.7,0.4,7.8c0-4.9,4.8-7.7,9.2-7.7c2.6,0,5.4,1,7.1,3c1.6,1.9,1.7,3.7,1.7,5.2H11.8z"/>
		<path class="st0" d="M28.7,0.6v15.9c0,1.8,0.1,5,3.4,5c3.3,0,3.3-2.9,3.3-5V0.6h6.7v15.9c0,4.4-1,6.4-2.6,8.1
			c-1.7,1.7-4.1,2.8-7.4,2.8c-1.9,0-5.4-0.5-7.6-2.8c-2.2-2.4-2.6-4.2-2.6-8.1V0.6H28.7z"/>
		<path class="st0" d="M47,0.6h8.3c4.6,0,6.4,0.6,8.1,1.9c2.2,1.7,3.2,4.5,3.2,7.2c0,3-1.6,7.5-6.5,8.3l7.1,8.9h-7.7l-6.1-8.5h-0.1
			v8.5H47V0.6z M53.4,13.8h2.4c3.9,0,4.4-2.5,4.4-3.8c0-2.4-1.7-3.6-4.3-3.6h-2.5V13.8z"/>
		<path class="st0" d="M74.2,0.6L79.5,19h0.1l5.3-18.4h6.9L83,26.8h-6.9L67.3,0.6H74.2z"/>
		<path class="st0" d="M94.2,0.6h6.7v26.3h-6.7V0.6z"/>
		<path class="st0" d="M110.2,0.6l5.3,18.4h0.1l5.3-18.4h6.9L119,26.8h-6.9l-8.8-26.3H110.2z"/>
		<path class="st0" d="M141.9,0.1c8.1,0,13.9,6.3,13.9,13.6c0,7.3-5.8,13.6-13.9,13.6c-8.3,0-13.8-6.6-13.8-13.3
			c0-1.7,0.2-3.7,1-5.6C130.4,5,134.5,0.1,141.9,0.1z M142,21.4c4.8,0,7.1-4.3,7.1-7.7c0-3.4-2.3-7.8-7.1-7.8c-4.7,0-7.2,4-7.2,7.7
			C134.7,17.7,137.5,21.4,142,21.4z"/>
		<path class="st0" d="M159.3,0.6h8.3c4.6,0,6.4,0.6,8.1,1.9c2.2,1.7,3.2,4.5,3.2,7.2c0,3-1.6,7.5-6.5,8.3l7.1,8.9h-7.7l-6.1-8.5
			h-0.1v8.5h-6.4V0.6z M165.8,13.8h2.4c3.9,0,4.4-2.5,4.4-3.8c0-2.4-1.7-3.6-4.3-3.6h-2.5V13.8z"/>
		<path class="st0" d="M189,8c0,3.5-2.4,4.3-3.6,4.3h-2.6V9.1h1.3c1.3,0,1.5-1,1.5-1.3V6.6h-2.8v-6h6.2V8z"/>
	</g>
	<g>
		<path class="st0" d="M223.3,0.5h8.4c4.6,0,6.4,0.6,8.2,1.9c2.2,1.7,3.3,4.5,3.3,7.2c0,3-1.6,7.5-6.6,8.3l7.2,9h-7.7l-6.1-8.5h-0.1
			v8.5h-6.5V0.5z M229.7,13.8h2.4c4,0,4.4-2.5,4.4-3.8c0-2.4-1.8-3.6-4.4-3.6h-2.5V13.8z"/>
		<path class="st0" d="M253.8,0.5h14.7v5.9h-8.2v4.1h8v5.9h-8V21h8.2v5.9h-14.7V0.5z"/>
		<path class="st0" d="M280.2,0.5h8.7l5.3,17.4h0.1l5.2-17.4h8.7v26.4h-6.2l0.2-19.8L302,7.1l-5.6,19.9h-4.5l-5.6-19.9l-0.1,0.1
			l0.2,19.8h-6.2V0.5z"/>
		<path class="st0" d="M332.8,0c8.2,0,14,6.4,14,13.7s-5.8,13.7-14,13.7c-8.3,0-13.9-6.6-13.9-13.4c0-1.8,0.3-3.7,1-5.6
			C321.3,5,325.4,0,332.8,0z M332.9,21.5c4.8,0,7.1-4.4,7.1-7.8c0-3.4-2.3-7.8-7.2-7.8c-4.7,0-7.2,4-7.2,7.7
			C325.6,17.7,328.4,21.5,332.9,21.5z"/>
		<path class="st0" d="M357.6,0.5h8.4c4.6,0,6.4,0.6,8.2,1.9c2.2,1.7,3.3,4.5,3.3,7.2c0,3-1.6,7.5-6.6,8.3l7.2,9h-7.7l-6.1-8.5H364
			v8.5h-6.5V0.5z M364,13.8h2.4c4,0,4.4-2.5,4.4-3.8c0-2.4-1.8-3.6-4.4-3.6H364V13.8z"/>
		<path class="st0" d="M398.5,8.2c-0.1-0.9-0.4-2.6-2.4-2.6c-1.2,0-2.3,0.8-2.3,2.1c0,1.6,0.7,1.9,5.5,4c4.9,2.2,6.2,4.5,6.2,7.6
			c0,3.9-2.2,8.1-9.2,8.1c-7.7,0-9.5-5-9.5-8.4v-0.9h6.7c0,3.1,1.9,3.6,2.8,3.6c1.6,0,2.6-1.3,2.6-2.5c0-1.8-1.1-2.2-5.2-3.9
			c-1.9-0.8-6.5-2.6-6.5-7.6s4.8-7.8,9.3-7.8c2.6,0,5.4,1,7.2,3c1.6,1.9,1.7,3.7,1.8,5.2H398.5z"/>
		<path class="st0" d="M416.2,0.5h14.7v5.9h-8.2v4.1h8v5.9h-8V21h8.2v5.9h-14.7V0.5z"/>
	</g>
	<path class="st0" d="M204.3,8.2c-0.1-0.9-0.4-2.6-2.4-2.6c-1.2,0-2.3,0.8-2.3,2.1c0,1.6,0.7,1.9,5.4,4c4.9,2.2,6.1,4.5,6.1,7.5
		c0,3.8-2.2,8.1-9.2,8.1c-7.6,0-9.5-5-9.5-8.3v-0.9h6.7c0,3.1,1.9,3.6,2.7,3.6c1.6,0,2.6-1.3,2.6-2.5c0-1.7-1.1-2.2-5.2-3.9
		c-1.8-0.7-6.4-2.6-6.4-7.5c0-4.9,4.8-7.7,9.2-7.7c2.6,0,5.4,1,7.1,3c1.6,1.9,1.7,3.7,1.7,5.2H204.3z"/>
	<rect x="216.5" y="0.5" class="st0" width="1.3" height="26.5"/>
</g>
</svg>
