<?xml version="1.0" encoding="utf-8"?>
<!-- Generator: Adobe Illustrator 22.0.1, SVG Export Plug-In . SVG Version: 6.00 Build 0)  -->
<svg version="1.1" id="Layer_1" xmlns="http://www.w3.org/2000/svg" xmlns:xlink="http://www.w3.org/1999/xlink" x="0px" y="0px"
	 viewBox="0 0 238.9 65.7" style="enable-background:new 0 0 238.9 65.7;" xml:space="preserve">
<style type="text/css">
	.st0{fill:url(#SVGID_1_);}
	.st1{fill:#231F20;}
</style>
<linearGradient id="SVGID_1_" gradientUnits="userSpaceOnUse" x1="0" y1="31.6953" x2="238.9199" y2="31.6953">
	<stop  offset="0" style="stop-color:#FFFFFF"/>
	<stop  offset="0.4" style="stop-color:#000000"/>
	<stop  offset="0.6" style="stop-color:#000000"/>
	<stop  offset="1" style="stop-color:#FFFFFF"/>
</linearGradient>
<rect y="31" class="st0" width="238.9" height="1.4"/>
<g>
	<path class="st1" d="M22.7,8.5c-0.1-0.9-0.4-2.7-2.5-2.7c-1.2,0-2.4,0.9-2.4,2.1c0,1.6,0.7,2,5.7,4.2c5.1,2.3,6.4,4.7,6.4,7.8
		c0,4-2.3,8.4-9.5,8.4c-7.9,0-9.9-5.2-9.9-8.7v-0.9h7c0,3.2,2,3.7,2.8,3.7c1.7,0,2.7-1.4,2.7-2.6c0-1.8-1.1-2.3-5.4-4
		c-1.9-0.8-6.7-2.7-6.7-7.8c0-5.1,5-8.1,9.6-8.1c2.7,0,5.6,1,7.4,3.1c1.6,2,1.7,3.8,1.8,5.4H22.7z"/>
	<path class="st1" d="M40.3,0.5v16.5c0,1.8,0.1,5.2,3.6,5.2c3.5,0,3.5-3,3.5-5.2V0.5h7v16.5c0,4.6-1,6.6-2.7,8.4
		c-1.8,1.8-4.3,3-7.7,3c-2,0-5.6-0.5-7.9-2.9c-2.3-2.5-2.7-4.4-2.7-8.4V0.5H40.3z"/>
	<path class="st1" d="M59.3,0.5H68c4.8,0,6.7,0.6,8.4,2c2.3,1.8,3.4,4.7,3.4,7.5c0,3.1-1.6,7.8-6.8,8.6l7.4,9.3h-8L66.1,19H66v8.8
		h-6.7V0.5z M66,14.3h2.5c4.1,0,4.6-2.6,4.6-3.9c0-2.5-1.8-3.7-4.5-3.7H66V14.3z"/>
	<path class="st1" d="M87.6,0.5l5.5,19.2h0.1l5.6-19.2h7.2l-9.2,27.4h-7.2L80.5,0.5H87.6z"/>
	<path class="st1" d="M108.5,0.5h7v27.4h-7V0.5z"/>
	<path class="st1" d="M125.2,0.5l5.5,19.2h0.1l5.5-19.2h7.2l-9.2,27.4h-7.2L118,0.5H125.2z"/>
	<path class="st1" d="M158.1,0c8.4,0,14.5,6.6,14.5,14.2c0,7.6-6,14.2-14.5,14.2c-8.6,0-14.4-6.8-14.4-13.9c0-1.8,0.3-3.8,1.1-5.8
		C146.2,5.1,150.5,0,158.1,0z M158.3,22.3c5,0,7.4-4.5,7.4-8c0-3.6-2.4-8.1-7.4-8.1c-4.8,0-7.5,4.1-7.5,8
		C150.7,18.3,153.6,22.3,158.3,22.3z"/>
	<path class="st1" d="M176.4,0.5h8.7c4.8,0,6.7,0.6,8.4,2c2.3,1.8,3.4,4.7,3.4,7.5c0,3.1-1.6,7.8-6.8,8.6l7.4,9.3h-8l-6.3-8.8h-0.1
		v8.8h-6.7V0.5z M183.1,14.3h2.5c4.1,0,4.6-2.6,4.6-3.9c0-2.5-1.8-3.7-4.5-3.7h-2.6V14.3z"/>
	<path class="st1" d="M207.2,8.3c0,3.7-2.5,4.5-3.8,4.5h-2.7V9.5h1.3c1.4,0,1.6-1,1.6-1.4V6.8h-2.9V0.5h6.4V8.3z"/>
	<path class="st1" d="M223.2,8.5c-0.1-0.9-0.4-2.7-2.5-2.7c-1.2,0-2.4,0.9-2.4,2.1c0,1.6,0.7,2,5.7,4.2c5.1,2.3,6.4,4.7,6.4,7.8
		c0,4-2.3,8.4-9.5,8.4c-7.9,0-9.9-5.2-9.9-8.7v-0.9h7c0,3.2,2,3.7,2.8,3.7c1.7,0,2.7-1.4,2.7-2.6c0-1.8-1.1-2.3-5.4-4
		c-1.9-0.8-6.7-2.7-6.7-7.8c0-5.1,5-8.1,9.6-8.1c2.7,0,5.6,1,7.4,3.1c1.6,2,1.7,3.8,1.8,5.4H223.2z"/>
</g>
<g>
	<path class="st1" d="M12.2,37.6h8.7c4.8,0,6.7,0.6,8.5,2c2.3,1.8,3.4,4.7,3.4,7.5c0,3.2-1.6,7.8-6.9,8.7l7.5,9.4h-8L19,56.2h-0.1
		v8.9h-6.7V37.6z M18.9,51.4h2.5c4.1,0,4.6-2.6,4.6-3.9c0-2.5-1.8-3.7-4.5-3.7h-2.6V51.4z"/>
	<path class="st1" d="M44,37.6h15.3v6.2h-8.6V48H59v6.2h-8.3V59h8.6v6.2H44V37.6z"/>
	<path class="st1" d="M71.4,37.6h9.1L86,55.7H86l5.4-18.1h9.1v27.6H94l0.2-20.6l-0.1-0.1l-5.9,20.7h-4.7l-5.9-20.7l-0.1,0.1
		l0.2,20.6h-6.5V37.6z"/>
	<path class="st1" d="M126.3,37.1c8.5,0,14.6,6.6,14.6,14.3s-6,14.3-14.6,14.3c-8.7,0-14.5-6.9-14.5-14c0-1.8,0.3-3.9,1.1-5.9
		C114.3,42.2,118.6,37.1,126.3,37.1z M126.4,59.5c5,0,7.4-4.5,7.4-8.1c0-3.6-2.4-8.2-7.5-8.2c-4.9,0-7.5,4.2-7.5,8
		C118.8,55.5,121.7,59.5,126.4,59.5z"/>
	<path class="st1" d="M152.1,37.6h8.7c4.8,0,6.7,0.6,8.5,2c2.3,1.8,3.4,4.7,3.4,7.5c0,3.2-1.6,7.8-6.9,8.7l7.5,9.4h-8l-6.4-8.9h-0.1
		v8.9h-6.7V37.6z M158.8,51.4h2.5c4.1,0,4.6-2.6,4.6-3.9c0-2.5-1.8-3.7-4.5-3.7h-2.6V51.4z"/>
	<path class="st1" d="M194.7,45.6c-0.1-0.9-0.4-2.7-2.5-2.7c-1.2,0-2.4,0.9-2.4,2.2c0,1.6,0.7,2,5.7,4.2c5.1,2.3,6.4,4.7,6.4,7.9
		c0,4-2.3,8.5-9.6,8.5c-8,0-9.9-5.2-9.9-8.7V56h7c0,3.2,2,3.8,2.9,3.8c1.7,0,2.7-1.4,2.7-2.6c0-1.8-1.2-2.3-5.4-4.1
		c-1.9-0.8-6.7-2.7-6.7-7.9s5-8.1,9.6-8.1c2.7,0,5.7,1,7.5,3.1c1.6,2,1.8,3.9,1.8,5.4H194.7z"/>
	<path class="st1" d="M213.1,37.6h15.3v6.2h-8.6V48h8.3v6.2h-8.3V59h8.6v6.2h-15.3V37.6z"/>
</g>
</svg>
