<?xml version="1.0" encoding="utf-8"?>
<!-- Generator: Adobe Illustrator 22.0.1, SVG Export Plug-In . SVG Version: 6.00 Build 0)  -->
<svg version="1.1" id="Layer_1" xmlns="http://www.w3.org/2000/svg" xmlns:xlink="http://www.w3.org/1999/xlink" x="0px" y="0px"
	 viewBox="0 0 678.4 37.5" style="enable-background:new 0 0 678.4 37.5;" xml:space="preserve">
<g>
	<path d="M27.9,0.7v2.8H15.4v33.2h-3V3.6H0V0.7H27.9z"/>
	<path d="M59.3,0.7v36.1h-3V19.4H34.6v17.4h-3V0.7h3v15.8h21.6V0.7H59.3z"/>
	<path d="M89.6,34v2.8H65.7V0.7h23.6v2.8H68.6v12.6h16.7v2.7H68.6V34H89.6z"/>
	<path d="M139.2,30.8c-1.6,2.1-6.3,6.8-14.3,6.8c-10.4,0-18.8-7.9-18.8-18.8C106,7.9,114.4,0,124.9,0c7.6,0.2,13.3,3.9,16.5,9.4
		l-3,0.8c-2.7-4.5-7.8-7.3-13.5-7.3c-8.9,0-15.8,6.4-15.8,15.9c0,9.4,7,15.9,15.8,15.9c7.5,0,12.8-4.5,14.2-7.7v-5.7h-11.5v-2.6
		h14.2v18.3h-2.7C139.2,32.1,139.2,30.8,139.2,30.8L139.2,30.8z"/>
	<path d="M148.2,36.8V0.7h3v36.1H148.2z"/>
	<path d="M179,36.8l-8.7-14.1c-0.8,0.1-1.6,0.2-2.4,0.2h-7.4v13.9h-3V0.7h10.3c8.3,0,13.3,4.3,13.3,11.1c0,5.3-2.9,8.9-7.9,10.3
		l9,14.6H179z M168,20.3c6.6,0,10.1-3.5,10.1-8.4c0-5.3-3.9-8.3-10.1-8.3h-7.5v16.7H168z"/>
	<path d="M210.2,34v2.8h-23.1V0.7h3V34H210.2z"/>
	<path d="M216.8,3.6v13.6H233v2.7h-16.1v16.9h-3V0.7H237v2.8H216.8z"/>
	<path d="M262.4,36.8l-8.7-14.1c-0.8,0.1-1.6,0.2-2.4,0.2h-7.4v13.9h-3V0.7h10.3c8.3,0,13.3,4.3,13.3,11.1c0,5.3-2.9,8.9-7.9,10.3
		l9,14.6H262.4z M251.5,20.3c6.6,0,10.1-3.5,10.1-8.4c0-5.3-3.9-8.3-10.1-8.3h-7.5v16.7H251.5z"/>
	<path d="M270.6,36.8V0.7h3v36.1H270.6z"/>
	<path d="M303.8,34v2.8h-23.9V0.7h23.6v2.8h-20.7v12.6h16.7v2.7h-16.7V34H303.8z"/>
	<path d="M337.2,0.7v36.1h-2.8L315.8,12c-3.1-4.2-4.7-6.5-4.7-6.5h-0.1c-0.1,0,0.1,4.2,0.1,9.4v22h-3V0.7h2.8l18.5,24.7
		c2.9,3.8,4.7,6.4,4.8,6.4h0.1c0.1,0-0.2-4.3-0.2-9.2V0.7H337.2z"/>
	<path d="M357.6,0.7c10.4,0,18.8,7.4,18.8,18.2c0,10.6-8.3,17.8-18.4,17.8h-15.5V0.7H357.6z M358.1,34c8.2,0,15.3-5.7,15.3-15
		c0-9.5-7.1-15.4-15.7-15.4h-12.2V34H358.1z"/>
	<path d="M418.8,34v2.8h-23.9V0.7h23.6v2.8h-20.7v12.6h16.7v2.7h-16.7V34H418.8z"/>
	<path d="M437.7,20.3c-0.1,0-1.3,1.9-2.3,3.3l-10.2,13.2h-3.7L435.8,18L422.6,0.7h3.7l9,11.8c0.5,0.8,2.3,3.3,2.3,3.3h0.1
		c0.1,0,1.8-2.5,2.3-3.3l9-11.8h3.7L439.6,18L454,36.8h-3.7l-10.2-13.2C439,22.2,437.8,20.3,437.7,20.3L437.7,20.3z"/>
	<path d="M467.9,0.7c8.4,0,13.3,4.2,13.3,11.3c0,7-5,11.3-13.3,11.3h-7.4v13.5h-3V0.7H467.9z M467.9,20.5c6.6,0,10.3-3.2,10.3-8.5
		c0-5.5-4-8.5-10.3-8.5h-7.4v16.9H467.9z"/>
	<path d="M509.3,34v2.8h-23.9V0.7H509v2.8h-20.7v12.6H505v2.7h-16.7V34H509.3z"/>
	<path d="M535.3,36.8l-8.7-14.1c-0.8,0.1-1.6,0.2-2.4,0.2h-7.4v13.9h-3V0.7h10.3c8.3,0,13.3,4.3,13.3,11.1c0,5.3-2.9,8.9-7.9,10.3
		l9,14.6H535.3z M524.4,20.3c6.6,0,10.1-3.5,10.1-8.4c0-5.3-3.9-8.3-10.1-8.3h-7.5v16.7H524.4z"/>
	<path d="M543.5,36.8V0.7h3v36.1H543.5z"/>
	<path d="M576.7,34v2.8h-23.9V0.7h23.6v2.8h-20.7v12.6h16.7v2.7h-16.7V34H576.7z"/>
	<path d="M610.1,0.7v36.1h-2.8L588.8,12c-3.1-4.2-4.7-6.5-4.7-6.5H584c-0.1,0,0.1,4.2,0.1,9.4v22h-3V0.7h2.8l18.5,24.7
		c2.9,3.8,4.7,6.4,4.8,6.4h0.1c0.1,0-0.2-4.3-0.2-9.2V0.7H610.1z"/>
	<path d="M646.5,10.2c-2.7-4.5-7.8-7.3-13.5-7.3c-8.9,0-15.8,6.4-15.8,15.9c0,9.4,7,15.8,15.8,15.8c6.2,0,11.5-3.3,14.1-8.3l3,0.8
		c-3,6.4-9.5,10.5-17,10.5c-10.4,0-18.8-7.9-18.8-18.8C614.1,7.9,622.6,0,633,0c7.1,0,13.2,3.7,16.5,9.4L646.5,10.2z"/>
	<path d="M678.4,34v2.8h-23.9V0.7h23.6v2.8h-20.7v12.6h16.7v2.7h-16.7V34H678.4z"/>
</g>
</svg>
